<svg width="18" height="18" viewBox="0 0 18 18" fill="none" xmlns="http://www.w3.org/2000/svg">
<path fill-rule="evenodd" clip-rule="evenodd" d="M5.7786 1.27585C6.61111 1.23752 6.87654 1.229 8.99719 1.229C11.1178 1.229 11.3833 1.23823 12.2151 1.27585C13.0469 1.31346 13.6146 1.44618 14.1115 1.63851C14.6317 1.83511 15.1036 2.14242 15.494 2.53986C15.8914 2.9295 16.198 3.40075 16.3939 3.92169C16.587 4.4185 16.719 4.98627 16.7573 5.81665C16.7956 6.65057 16.8041 6.91601 16.8041 9.03595C16.8041 11.1566 16.7949 11.422 16.7573 12.2545C16.7197 13.0849 16.587 13.6527 16.3939 14.1495C16.198 14.6705 15.8909 15.1425 15.494 15.5327C15.1036 15.9302 14.6317 16.2368 14.1115 16.4327C13.6146 16.6257 13.0469 16.7577 12.2165 16.7961C11.3833 16.8344 11.1178 16.8429 8.99719 16.8429C6.87654 16.8429 6.61111 16.8337 5.7786 16.7961C4.94823 16.7584 4.38045 16.6257 3.88364 16.4327C3.36265 16.2368 2.89061 15.9297 2.50039 15.5327C2.10322 15.1429 1.79586 14.6711 1.59976 14.1502C1.40742 13.6534 1.27541 13.0856 1.23709 12.2552C1.19876 11.4213 1.19025 11.1559 1.19025 9.03595C1.19025 6.9153 1.19947 6.64986 1.23709 5.81807C1.2747 4.98627 1.40742 4.4185 1.59976 3.92169C1.79615 3.40081 2.10374 2.92901 2.5011 2.53915C2.89077 2.14206 3.36233 1.83471 3.88293 1.63851C4.37974 1.44618 4.94752 1.31417 5.77789 1.27585H5.7786ZM12.1519 2.6811C11.3286 2.64348 11.0816 2.63567 8.99719 2.63567C6.91274 2.63567 6.66575 2.64348 5.84248 2.6811C5.08094 2.71587 4.66789 2.84291 4.39251 2.95008C4.02843 3.09202 3.76796 3.26023 3.49471 3.53347C3.2357 3.78546 3.03636 4.09222 2.91132 4.43127C2.80415 4.70664 2.67711 5.1197 2.64234 5.88123C2.60472 6.70451 2.59692 6.95149 2.59692 9.03595C2.59692 11.1204 2.60472 11.3674 2.64234 12.1907C2.67711 12.9522 2.80415 13.3653 2.91132 13.6406C3.03623 13.9792 3.23567 14.2865 3.49471 14.5384C3.74667 14.7975 4.05398 14.9969 4.39251 15.1218C4.66789 15.229 5.08094 15.356 5.84248 15.3908C6.66575 15.4284 6.91203 15.4362 8.99719 15.4362C11.0824 15.4362 11.3286 15.4284 12.1519 15.3908C12.9134 15.356 13.3265 15.229 13.6019 15.1218C13.966 14.9799 14.2264 14.8117 14.4997 14.5384C14.7587 14.2865 14.9581 13.9792 15.0831 13.6406C15.1902 13.3653 15.3173 12.9522 15.352 12.1907C15.3897 11.3674 15.3975 11.1204 15.3975 9.03595C15.3975 6.95149 15.3897 6.70451 15.352 5.88123C15.3173 5.1197 15.1902 4.70664 15.0831 4.43127C14.9411 4.06718 14.7729 3.80672 14.4997 3.53347C14.2477 3.27447 13.9409 3.07514 13.6019 2.95008C13.3265 2.84291 12.9134 2.71587 12.1519 2.6811ZM8.00003 11.4426C8.55692 11.6744 9.17702 11.7057 9.75441 11.5311C10.3318 11.3565 10.8307 10.9869 11.1658 10.4854C11.501 9.98383 11.6516 9.38149 11.592 8.78123C11.5323 8.18097 11.2662 7.62003 10.8389 7.19422C10.5666 6.92202 10.2372 6.7136 9.87464 6.58396C9.51206 6.45432 9.12525 6.40668 8.74204 6.44448C8.35884 6.48228 7.98878 6.60457 7.65852 6.80255C7.32825 7.00052 7.04598 7.26927 6.83204 7.58943C6.6181 7.90959 6.47781 8.2732 6.42127 8.65409C6.36472 9.03498 6.39333 9.42367 6.50503 9.79217C6.61673 10.1607 6.80875 10.4998 7.06726 10.7852C7.32577 11.0706 7.64434 11.2951 8.00003 11.4426ZM6.15972 6.19848C6.53234 5.82586 6.97471 5.53028 7.46156 5.32862C7.94842 5.12695 8.47022 5.02316 8.99719 5.02316C9.52416 5.02316 10.046 5.12695 10.5328 5.32862C11.0197 5.53028 11.462 5.82586 11.8347 6.19848C12.2073 6.5711 12.5029 7.01347 12.7045 7.50032C12.9062 7.98718 13.01 8.50898 13.01 9.03595C13.01 9.56292 12.9062 10.0847 12.7045 10.5716C12.5029 11.0584 12.2073 11.5008 11.8347 11.8734C11.0821 12.626 10.0614 13.0487 8.99719 13.0487C7.93293 13.0487 6.91227 12.626 6.15972 11.8734C5.40718 11.1209 4.9844 10.1002 4.9844 9.03595C4.9844 7.97169 5.40718 6.95102 6.15972 6.19848ZM13.9 5.62077C13.9923 5.53366 14.0662 5.42891 14.1173 5.31273C14.1685 5.19654 14.1958 5.07128 14.1976 4.94435C14.1995 4.81742 14.1758 4.69142 14.1281 4.57379C14.0804 4.45616 14.0096 4.34931 13.9198 4.25955C13.83 4.16979 13.7232 4.09895 13.6056 4.05123C13.4879 4.00351 13.3619 3.97987 13.235 3.98172C13.1081 3.98357 12.9828 4.01087 12.8666 4.062C12.7504 4.11313 12.6457 4.18705 12.5586 4.27939C12.3892 4.45897 12.2964 4.6975 12.3 4.94435C12.3036 5.1912 12.4033 5.42693 12.5779 5.60149C12.7524 5.77606 12.9881 5.87572 13.235 5.87932C13.4818 5.88292 13.7204 5.79017 13.9 5.62077Z" fill="#010101"/>
</svg>
