<svg width="18" height="18" viewBox="0 0 18 18" fill="none" xmlns="http://www.w3.org/2000/svg">
<g clip-path="url(#clip0_0_266)">
<path d="M17.6439 4.02319C17.0512 4.28579 16.4146 4.46322 15.7453 4.54341C16.4359 4.13021 16.9525 3.47987 17.1989 2.71375C16.5501 3.09912 15.84 3.37038 15.0995 3.51574C14.6015 2.98406 13.942 2.63165 13.2232 2.51324C12.5045 2.39482 11.7667 2.51701 11.1245 2.86084C10.4823 3.20468 9.9716 3.75091 9.67165 4.41474C9.37171 5.07858 9.29932 5.82287 9.46572 6.53206C8.1511 6.46605 6.86504 6.12436 5.69101 5.52915C4.51699 4.93395 3.48123 4.09853 2.65097 3.07713C2.36708 3.56684 2.20385 4.13461 2.20385 4.7393C2.20353 5.28365 2.33758 5.81967 2.59411 6.29979C2.85063 6.77991 3.2217 7.18929 3.67439 7.4916C3.14939 7.4749 2.63598 7.33304 2.17688 7.07783V7.12042C2.17682 7.88389 2.44092 8.62388 2.92434 9.2148C3.40777 9.80573 4.08076 10.2112 4.82911 10.3624C4.34209 10.4942 3.83148 10.5136 3.33585 10.4192C3.54699 11.0761 3.95828 11.6506 4.51212 12.0622C5.06597 12.4737 5.73466 12.7018 6.42456 12.7144C5.2534 13.6338 3.80703 14.1325 2.31811 14.1303C2.05437 14.1304 1.79084 14.115 1.5289 14.0842C3.04024 15.0559 4.79954 15.5717 6.59632 15.5697C12.6786 15.5697 16.0037 10.5321 16.0037 6.163C16.0037 6.02106 16.0001 5.87769 15.9938 5.73575C16.6405 5.26802 17.1988 4.68883 17.6424 4.02532L17.6439 4.02319Z" fill="#010101"/>
</g>
<defs>
<clipPath id="clip0_0_266">
<rect width="17.0333" height="17.0333" fill="white" transform="translate(0.863892 0.519287)"/>
</clipPath>
</defs>
</svg>
